<?xml version="1.0" standalone="no"?>
<!DOCTYPE svg PUBLIC "-//W3C//DTD SVG 20010904//EN"
 "http://www.w3.org/TR/2001/REC-SVG-20010904/DTD/svg10.dtd">
<svg version="1.0" xmlns="http://www.w3.org/2000/svg"
 width="590.000000pt" height="775.000000pt" viewBox="0 0 590.000000 775.000000"
 preserveAspectRatio="xMidYMid meet">

<g transform="translate(0.000000,775.000000) scale(0.100000,-0.100000)"
fill="#000000" stroke="none">
<path d="M3480 7653 c-116 -198 -262 -525 -311 -698 -12 -44 -25 -83 -28 -87
-3 -4 -58 139 -121 317 -63 179 -120 325 -126 325 -6 0 -53 -45 -103 -100
l-92 -99 156 -297 c85 -163 155 -300 155 -304 0 -4 -100 -10 -222 -13 -301 -7
-503 -43 -744 -133 l-92 -35 -44 23 c-33 18 -64 24 -131 27 -95 3 -147 -10
-217 -55 -19 -12 -64 -30 -99 -38 -172 -43 -276 -135 -343 -304 -18 -45 -37
-73 -64 -94 -284 -226 -533 -622 -605 -963 -21 -99 -16 -323 10 -439 24 -105
71 -246 102 -307 l18 -36 -68 -47 c-204 -139 -296 -337 -246 -529 44 -169 185
-346 377 -473 109 -73 205 -119 352 -169 55 -20 106 -37 113 -40 8 -2 -1 -40
-29 -117 -84 -238 -118 -443 -118 -704 l0 -165 -33 5 c-17 3 -106 13 -197 21
-91 9 -281 36 -422 62 -248 44 -258 45 -284 29 -23 -16 -25 -22 -19 -54 15
-86 153 -296 282 -433 299 -315 453 -435 709 -548 106 -48 285 -111 353 -126
22 -5 60 -32 110 -78 115 -107 249 -201 380 -267 l43 -22 -48 -33 c-81 -54
-139 -111 -244 -236 -103 -122 -135 -172 -127 -193 9 -23 86 -27 278 -15 l187
11 58 -26 c39 -18 84 -52 134 -101 110 -108 154 -118 267 -61 89 45 163 66
232 66 31 0 168 -12 304 -26 l248 -27 27 20 c22 17 28 29 30 72 4 67 -16 126
-89 272 -33 64 -59 118 -59 121 0 3 28 11 63 17 34 7 180 46 325 87 208 59
571 152 739 189 18 4 23 -1 28 -27 20 -90 83 -178 171 -238 55 -38 144 -60
246 -60 155 0 290 54 471 188 229 170 428 400 626 724 73 121 161 311 149 323
-5 6 -295 -31 -350 -44 l-37 -9 -7 57 c-4 31 -2 76 3 101 6 25 22 95 36 155
49 210 56 417 21 645 -30 191 -123 556 -178 697 l-24 62 68 51 c38 28 90 74
115 103 53 60 128 206 150 292 46 180 36 413 -27 605 -74 227 -209 452 -421
699 -245 287 -367 530 -405 813 -9 65 -20 118 -24 118 -4 0 -51 -30 -105 -66
l-98 -65 -58 17 c-52 16 -70 29 -165 124 -197 196 -388 331 -604 426 -106 46
-327 124 -353 124 -36 0 -8 20 93 68 159 76 169 80 402 157 l215 72 3 111 c3
112 3 112 -21 112 -41 0 -235 -59 -336 -102 -115 -48 -146 -65 -319 -176 -73
-47 -134 -83 -136 -81 -5 5 190 433 293 645 43 89 76 166 72 171 -11 16 -150
123 -160 123 -5 0 -33 -39 -61 -87z m-175 -1002 c61 -12 169 -42 240 -66 341
-114 556 -241 793 -471 l107 -103 -50 14 c-27 8 -58 15 -67 15 -24 0 -64 -71
-93 -166 l-25 -81 -113 -12 c-162 -18 -187 -22 -187 -33 0 -6 22 -41 50 -79
78 -107 148 -236 175 -322 48 -151 57 -232 62 -555 6 -364 2 -423 -35 -458
-87 -84 -375 -236 -553 -293 -124 -39 -272 -69 -383 -77 l-88 -7 7 44 c36 223
93 357 208 488 68 78 99 147 105 235 6 92 -18 143 -85 186 -68 43 -84 47 -372
80 -326 37 -434 70 -616 184 -106 67 -235 112 -288 100 -44 -9 -129 -53 -212
-109 -39 -26 -101 -62 -139 -81 l-69 -33 -141 5 c-135 5 -143 4 -179 -18 -31
-19 -45 -38 -72 -101 -18 -43 -53 -112 -76 -153 l-43 -75 -18 36 c-34 65 -87
239 -103 335 -56 347 57 709 312 999 219 250 612 469 988 551 185 40 293 49
580 46 233 -2 285 -6 380 -25z m-1444 -102 c66 -23 65 -29 -9 -70 l-69 -38
-59 24 c-32 13 -81 27 -107 30 -45 7 -47 8 -28 22 58 40 198 57 272 32z m-157
-100 l55 -20 -102 -69 c-289 -193 -483 -432 -585 -722 -49 -137 -65 -228 -65
-373 -1 -183 29 -322 110 -513 25 -60 25 -63 8 -82 -29 -33 -115 -86 -268
-167 -78 -41 -168 -91 -201 -110 -47 -29 -60 -33 -67 -22 -17 27 -71 185 -96
279 -34 130 -43 358 -19 479 64 314 308 706 581 934 49 41 64 61 82 110 87
239 339 362 567 276z m3111 -446 c41 -324 155 -565 406 -858 180 -211 254
-320 348 -515 96 -199 131 -343 131 -537 0 -247 -64 -419 -209 -563 -88 -87
-174 -137 -305 -174 -74 -22 -109 -26 -217 -26 -234 0 -356 43 -488 171 -153
149 -241 358 -261 619 -5 61 -4 212 3 362 19 441 -10 746 -87 938 -15 36 -64
121 -110 190 -46 69 -83 126 -82 127 2 3 254 33 273 33 7 0 20 26 29 58 9 31
29 87 46 123 l30 67 53 -14 c29 -8 97 -30 150 -49 l98 -36 23 22 c26 24 145
108 156 108 4 1 9 -20 13 -46z m-2604 -768 c24 -9 109 -51 189 -95 211 -115
277 -134 582 -170 139 -17 267 -33 283 -36 80 -17 159 -85 171 -149 16 -88
-21 -180 -124 -307 -39 -48 -85 -117 -102 -153 -38 -80 -76 -227 -91 -349 -35
-300 -87 -443 -213 -583 -214 -238 -716 -379 -1281 -360 -614 21 -1120 267
-1299 632 -60 122 -71 221 -35 327 62 186 210 308 619 513 171 86 237 139 298
239 44 72 122 229 122 245 0 5 17 17 38 27 36 19 122 23 252 14 61 -4 141 29
269 114 57 37 122 76 145 86 51 23 120 25 177 5z m2004 -1270 c54 -259 184
-464 360 -570 102 -61 200 -87 351 -93 144 -5 229 8 346 54 34 13 65 24 69 24
16 0 109 -310 159 -530 73 -322 81 -583 24 -852 -9 -43 -20 -78 -24 -78 -4 0
-10 17 -14 38 -8 49 -41 102 -64 102 -28 0 -152 -68 -346 -189 l-180 -111 -30
27 c-17 16 -73 68 -125 117 l-94 90 -20 -25 c-40 -50 -160 -263 -236 -421
-124 -255 -171 -424 -171 -608 l0 -87 -217 -53 c-120 -29 -346 -89 -503 -133
-157 -44 -312 -86 -345 -94 -33 -7 -188 -22 -344 -33 -315 -21 -362 -18 -551
37 -396 114 -685 286 -887 527 -190 227 -307 467 -363 752 -28 137 -39 476
-21 635 20 174 74 387 146 571 5 13 12 14 38 7 112 -33 272 -52 495 -56 246
-6 379 3 554 38 425 84 690 246 818 499 33 66 76 205 85 275 14 110 3 99 123
113 312 37 637 158 860 322 l77 56 7 -135 c3 -75 14 -172 23 -216z m-3913
-1800 c103 -19 254 -41 335 -50 81 -8 187 -20 234 -26 l86 -11 7 -76 c27 -296
148 -605 331 -841 31 -40 54 -75 52 -77 -2 -3 -42 7 -88 22 -199 62 -410 164
-564 272 -106 75 -452 422 -529 530 -71 101 -136 226 -136 264 0 26 3 28 43
28 23 0 126 -16 229 -35z m5148 -169 c14 -31 23 -85 30 -187 6 -78 12 -144 14
-146 2 -2 50 5 107 16 57 11 142 23 188 27 l83 7 -7 -24 c-16 -57 -123 -257
-204 -380 -118 -181 -225 -312 -362 -444 -245 -237 -420 -333 -617 -343 -174
-8 -297 42 -370 153 -53 80 -67 136 -66 265 1 190 41 337 158 584 60 125 174
335 221 403 l22 33 116 -110 c64 -61 122 -110 128 -110 13 0 86 43 257 152
111 71 253 148 275 148 4 0 17 -20 27 -44z m-3376 -1382 c145 -55 328 -102
421 -110 39 -3 180 1 314 10 232 15 244 15 257 -1 7 -10 38 -68 69 -129 56
-112 87 -219 78 -269 -10 -48 -30 -50 -295 -21 -134 14 -268 26 -299 26 -67 0
-135 -19 -231 -65 -118 -57 -169 -45 -260 58 -31 35 -79 75 -109 92 -60 33
-71 34 -371 25 -86 -3 -159 -2 -163 2 -16 16 190 268 286 349 97 82 128 99
158 87 14 -5 79 -30 145 -54z"/>
<path d="M1490 5899 c-170 -28 -302 -180 -286 -331 16 -158 95 -255 264 -320
71 -28 84 -30 182 -26 89 3 114 8 168 32 126 58 212 194 197 313 -18 153 -115
261 -286 319 -75 25 -140 29 -239 13z m275 -49 c181 -76 272 -243 214 -395
-33 -90 -114 -166 -203 -194 -204 -63 -437 19 -515 182 -58 121 -47 230 35
325 102 120 297 153 469 82z"/>
<path d="M1590 5595 c-22 -26 3 -65 40 -65 23 0 33 6 42 25 14 32 -3 55 -42
55 -15 0 -33 -7 -40 -15z"/>
<path d="M3227 5784 c-197 -42 -316 -134 -361 -278 -16 -51 -16 -59 -1 -118 8
-34 27 -81 40 -104 137 -233 616 -281 860 -87 76 60 130 172 127 263 -4 94
-105 222 -219 276 -121 57 -309 77 -446 48z m328 -30 c135 -36 228 -102 280
-195 40 -73 41 -161 3 -234 -53 -102 -156 -174 -298 -208 -111 -27 -170 -30
-267 -13 -218 38 -336 122 -383 273 -19 63 -19 63 0 127 54 174 259 283 510
271 52 -2 122 -12 155 -21z"/>
<path d="M3290 5515 c-31 -38 27 -96 65 -65 18 15 20 51 3 68 -17 17 -53 15
-68 -3z"/>
<path d="M1744 4954 c3 -9 9 -47 12 -85 8 -78 24 -93 24 -21 0 57 -17 122 -32
122 -5 0 -7 -7 -4 -16z"/>
<path d="M2366 4902 c-51 -30 -180 -138 -190 -159 -13 -30 24 -8 89 53 39 35
94 76 123 90 49 25 67 44 40 44 -7 0 -35 -13 -62 -28z"/>
</g>
</svg>
